<svg width="17" height="16" viewBox="0 0 17 16" fill="none" xmlns="http://www.w3.org/2000/svg">
<g id="mdi:heart-outline">
<path id="Vector" d="M9.04344 12.3627L8.97677 12.4294L8.90344 12.3627C5.73677 9.48936 3.64344 7.58937 3.64344 5.6627C3.64344 4.32937 4.64344 3.32937 5.97677 3.32937C7.00344 3.32937 8.00344 3.99603 8.35677 4.9027H9.59677C9.9501 3.99603 10.9501 3.32937 11.9768 3.32937C13.3101 3.32937 14.3101 4.32937 14.3101 5.6627C14.3101 7.58937 12.2168 9.48936 9.04344 12.3627ZM11.9768 1.99603C10.8168 1.99603 9.70344 2.53603 8.97677 3.3827C8.2501 2.53603 7.13677 1.99603 5.97677 1.99603C3.92344 1.99603 2.3101 3.6027 2.3101 5.6627C2.3101 8.17603 4.57677 10.236 8.0101 13.3494L8.97677 14.2294L9.94344 13.3494C13.3768 10.236 15.6434 8.17603 15.6434 5.6627C15.6434 3.6027 14.0301 1.99603 11.9768 1.99603Z" fill="#323232"/>
</g>
</svg>
